<svg width="190" height="54" viewBox="0 0 190 54" fill="none" xmlns="http://www.w3.org/2000/svg">
<path d="M39.7642 23.888C39.7642 24.0513 39.7642 24.2206 39.7642 24.3899C39.6516 28.7968 38.0785 33.0414 35.292 36.4573C32.5055 39.8731 28.6633 42.2667 24.3689 43.2622C23.3741 43.4914 22.3634 43.645 21.3455 43.7217C20.8678 43.7217 20.3901 43.7701 19.9063 43.7701C15.7117 43.774 11.6232 42.4514 8.22553 39.9917C4.82782 37.5319 2.29483 34.0608 0.988714 30.0747C-0.3174 26.0886 -0.329756 21.7916 0.953412 17.7981C2.23658 13.8045 4.74957 10.319 8.13308 7.83968C8.65689 7.45385 9.19977 7.09462 9.75968 6.76334C10.189 6.50937 10.6244 6.27354 11.0779 6.04981L11.2351 5.9712C14.2171 4.5347 17.5104 3.86493 20.8166 4.02258C24.1228 4.18023 27.3374 5.16032 30.1692 6.87404C33.001 8.58776 35.3604 10.9809 37.0338 13.8368C38.7071 16.6926 39.6414 19.9208 39.7521 23.2289C39.7521 23.2289 39.7521 23.2592 39.7521 23.2773C39.7642 23.4769 39.7642 23.6825 39.7642 23.888Z" fill="white"/>
<path d="M21.6176 21.0823C21.3445 20.413 20.9415 19.8044 20.432 19.2917C19.9224 18.779 19.3162 18.3723 18.6486 18.0952C17.943 17.8046 17.1863 17.6586 16.4233 17.6658H10.6062C10.395 17.6517 10.1835 17.6888 9.98979 17.7741C9.79605 17.8594 9.62582 17.9903 9.49362 18.1556C9.25471 18.4554 9.12461 18.8275 9.12461 19.2108C9.12461 19.5942 9.25471 19.9662 9.49362 20.266C9.62712 20.4294 9.79774 20.5586 9.99128 20.6428C10.1848 20.7269 10.3957 20.7636 10.6062 20.7497H16.4233C16.7676 20.7349 17.1112 20.7923 17.432 20.918C17.7529 21.0438 18.0439 21.2352 18.2864 21.48C18.529 21.7248 18.7177 22.0176 18.8404 22.3396C18.9632 22.6616 19.0173 23.0057 18.9993 23.3499V23.6643C19.0148 24.0067 18.9587 24.3486 18.8347 24.6681C18.7108 24.9876 18.5216 25.2778 18.2792 25.5202C18.0368 25.7626 17.7466 25.9518 17.4271 26.0757C17.1076 26.1997 16.7657 26.2558 16.4233 26.2403H10.6062C10.2858 26.2453 9.96786 26.184 9.67231 26.0602C9.37676 25.9363 9.11004 25.7527 8.88894 25.5207C8.65453 25.2734 8.47177 24.9819 8.35133 24.6631C8.23089 24.3444 8.1752 24.0048 8.1875 23.6643V7.83969H8.13308C7.04963 8.63417 6.04887 9.53567 5.14593 10.5305V23.6401C5.12832 25.1312 5.70235 26.5684 6.7423 27.6371C7.23623 28.1525 7.82837 28.5637 8.4838 28.8465C9.15353 29.1362 9.87654 29.2825 10.6062 29.2758H16.4233C17.1866 29.286 17.9439 29.1399 18.6486 28.8465C19.9884 28.2862 21.0546 27.2222 21.6176 25.8835C21.9081 25.178 22.0541 24.4213 22.0469 23.6583V23.3499C22.0562 22.573 21.9102 21.8021 21.6176 21.0823Z" fill="#524FA1"/>
<path d="M37.7929 27.2803C37.23 25.9416 36.1638 24.8776 34.8239 24.3174C34.1207 24.0262 33.3658 23.8802 32.6047 23.888H26.7877C26.0563 23.8844 25.3319 24.0305 24.6592 24.3174C24.0048 24.5988 23.4143 25.0103 22.9237 25.5267C22.4332 26.0357 22.0397 26.63 21.7627 27.2803C21.4722 27.9859 21.3262 28.7426 21.3334 29.5056V43.7217C22.3513 43.645 23.362 43.4914 24.3568 43.2622V29.5056C24.3433 29.1658 24.3984 28.8268 24.5189 28.5089C24.6395 28.191 24.8229 27.9006 25.0583 27.6552C25.2777 27.4207 25.5439 27.2349 25.8398 27.1099C26.1356 26.9849 26.4544 26.9235 26.7756 26.9296H32.5926C32.9343 26.9169 33.275 26.9748 33.5933 27.0998C33.9115 27.2247 34.2006 27.414 34.4424 27.6558C34.6842 27.8976 34.8735 28.1867 34.9984 28.505C35.1234 28.8232 35.1813 29.1639 35.1686 29.5056V29.82C35.1865 30.1631 35.1327 30.5061 35.0107 30.8273C34.8886 31.1484 34.701 31.4406 34.4598 31.6853C34.2186 31.9299 33.9291 32.1216 33.6097 32.2481C33.2903 32.3746 32.948 32.4332 32.6047 32.4202H26.7877C26.5764 32.4055 26.3647 32.4424 26.1709 32.5277C25.9771 32.6131 25.8069 32.7442 25.675 32.91C25.4366 33.2088 25.3067 33.5798 25.3067 33.9621C25.3067 34.3444 25.4366 34.7154 25.675 35.0143C25.8069 35.18 25.9771 35.3112 26.1709 35.3965C26.3647 35.4818 26.5764 35.5187 26.7877 35.5041H32.6047C33.3658 35.512 34.1207 35.3659 34.8239 35.0747C35.4916 34.7976 36.0977 34.3909 36.6073 33.8782C37.1169 33.3655 37.5199 32.7569 37.7929 32.0876C38.0824 31.3754 38.2283 30.613 38.2223 29.8442V29.5298C38.2327 28.7586 38.0867 27.9934 37.7929 27.2803Z" fill="#524FA1"/>
<path d="M39.7642 23.888C39.7642 24.0513 39.7642 24.2206 39.7642 24.3899C39.7642 24.3899 27.9849 23.888 22.9721 15.7792C21.538 13.4229 19.6175 11.3999 17.3391 9.84509C15.0606 8.29032 12.4766 7.23967 9.75967 6.76334C10.189 6.50937 10.6244 6.27354 11.0779 6.04981L11.2351 5.9712C14.2171 4.5347 17.5104 3.86493 20.8166 4.02258C24.1228 4.18023 27.3374 5.16032 30.1692 6.87404C33.001 8.58776 35.3604 10.9809 37.0338 13.8368C38.7071 16.6926 39.6414 19.9208 39.7521 23.2289C39.7521 23.2289 39.7521 23.2592 39.7521 23.2773C39.7642 23.4769 39.7642 23.6825 39.7642 23.888Z" fill="white"/>
<path d="M64.3801 26.896C65.9161 27.256 67.1281 28 68.0161 29.128C68.9281 30.256 69.3841 31.564 69.3841 33.052C69.3841 35.236 68.6521 36.94 67.1881 38.164C65.7481 39.388 63.6721 40 60.9601 40H49.1161V14.548H60.6721C63.2641 14.548 65.2681 15.112 66.6841 16.24C68.1001 17.368 68.8081 18.976 68.8081 21.064C68.8081 22.6 68.4001 23.884 67.5841 24.916C66.7681 25.924 65.7001 26.584 64.3801 26.896ZM55.2721 24.952H59.3041C61.4401 24.952 62.5081 24.04 62.5081 22.216C62.5081 20.392 61.4161 19.48 59.2321 19.48H55.2721V24.952ZM59.6641 34.996C61.9441 34.996 63.0841 34.06 63.0841 32.188C63.0841 31.276 62.7841 30.568 62.1841 30.064C61.5841 29.536 60.7321 29.272 59.6281 29.272H55.2721V34.996H59.6641ZM78.7917 31.072V40H72.6357V14.548H82.6077C85.6317 14.548 87.9357 15.304 89.5197 16.816C91.1037 18.304 91.8957 20.32 91.8957 22.864C91.8957 24.448 91.5357 25.864 90.8157 27.112C90.1197 28.336 89.0757 29.308 87.6837 30.028C86.2917 30.724 84.5997 31.072 82.6077 31.072H78.7917ZM81.9237 26.14C84.3957 26.14 85.6317 25.048 85.6317 22.864C85.6317 20.632 84.3957 19.516 81.9237 19.516H78.7917V26.14H81.9237ZM120.42 14.548V19.444H113.508V40H107.316V19.444H100.476V14.548H120.42ZM142.095 29.416C142.095 29.92 142.035 30.472 141.915 31.072H127.983C128.055 32.584 128.439 33.676 129.135 34.348C129.831 34.996 130.719 35.32 131.799 35.32C132.711 35.32 133.467 35.092 134.067 34.636C134.667 34.18 135.063 33.592 135.255 32.872H141.771C141.507 34.288 140.931 35.56 140.043 36.688C139.155 37.792 138.027 38.668 136.659 39.316C135.291 39.94 133.767 40.252 132.087 40.252C130.119 40.252 128.367 39.844 126.831 39.028C125.319 38.188 124.131 36.988 123.267 35.428C122.403 33.868 121.971 32.044 121.971 29.956C121.971 27.844 122.391 26.02 123.231 24.484C124.095 22.924 125.295 21.736 126.831 20.92C128.367 20.08 130.119 19.66 132.087 19.66C134.079 19.66 135.831 20.068 137.343 20.884C138.855 21.7 140.019 22.852 140.835 24.34C141.675 25.804 142.095 27.496 142.095 29.416ZM135.867 28.48C135.891 27.16 135.531 26.176 134.787 25.528C134.067 24.856 133.167 24.52 132.087 24.52C130.959 24.52 130.023 24.856 129.279 25.528C128.535 26.2 128.115 27.184 128.019 28.48H135.867ZM154.376 19.66C156.968 19.66 159.14 20.38 160.892 21.82C162.644 23.236 163.748 25.192 164.204 27.688H157.688C157.496 26.824 157.1 26.152 156.5 25.672C155.9 25.192 155.144 24.952 154.232 24.952C153.152 24.952 152.264 25.384 151.568 26.248C150.872 27.088 150.524 28.324 150.524 29.956C150.524 31.588 150.872 32.836 151.568 33.7C152.264 34.54 153.152 34.96 154.232 34.96C155.144 34.96 155.9 34.72 156.5 34.24C157.1 33.76 157.496 33.088 157.688 32.224H164.204C163.748 34.72 162.644 36.688 160.892 38.128C159.14 39.544 156.968 40.252 154.376 40.252C152.408 40.252 150.656 39.844 149.12 39.028C147.608 38.188 146.42 36.988 145.556 35.428C144.692 33.868 144.26 32.044 144.26 29.956C144.26 27.844 144.68 26.02 145.52 24.484C146.384 22.924 147.584 21.736 149.12 20.92C150.656 20.08 152.408 19.66 154.376 19.66ZM180.161 19.696C182.465 19.696 184.289 20.464 185.633 22C187.001 23.536 187.685 25.648 187.685 28.336V40H181.529V29.056C181.529 27.712 181.169 26.668 180.449 25.924C179.753 25.156 178.817 24.772 177.641 24.772C176.393 24.772 175.397 25.168 174.653 25.96C173.933 26.752 173.573 27.88 173.573 29.344V40H167.417V13.36H173.573V23.584C174.149 22.384 175.001 21.436 176.129 20.74C177.281 20.044 178.625 19.696 180.161 19.696Z" fill="white"/>
</svg>
