<svg width="20" height="20" viewBox="0 0 20 20" fill="none" xmlns="http://www.w3.org/2000/svg">
<path fill-rule="evenodd" clip-rule="evenodd" d="M7.17578 2.52344L7.66797 0H12.332L12.8242 2.52344C13.645 2.8338 14.4039 3.2674 15.0703 3.81445L17.4941 2.97852L19.8262 7.02148L17.8867 8.70703C17.9555 9.12899 18 9.55862 18 10C18 10.4414 17.9555 10.871 17.8867 11.293L19.8262 12.9785L17.4941 17.0215L15.0703 16.1855C14.4039 16.7326 13.645 17.1662 12.8242 17.4766L12.332 20H7.66797L7.17578 17.4766C6.35502 17.1662 5.5961 16.7326 4.92969 16.1855L2.50586 17.0215L0.173828 12.9785L2.11328 11.293C2.04452 10.871 2 10.4414 2 10C2 9.55862 2.04452 9.12899 2.11328 8.70703L0.173828 7.02148L2.50586 2.97852L4.92969 3.81445C5.5961 3.2674 6.35502 2.8338 7.17578 2.52344ZM14 10C14 7.791 12.209 6 10 6C7.791 6 6 7.791 6 10C6 12.209 7.791 14 10 14C12.209 14 14 12.209 14 10Z" fill="#524FA1"/>
</svg>
